<svg width="16" height="16" viewBox="0 0 16 16" fill="none" xmlns="http://www.w3.org/2000/svg">
<g clip-path="url(#clip0_37926_408)">
<path d="M11.6621 3.19727L11.5791 3.18262H11.5762C11.5743 3.18231 11.5718 3.18123 11.5684 3.18066C11.5613 3.17949 11.5507 3.17795 11.5371 3.17578C11.51 3.17145 11.47 3.16558 11.4199 3.1582C11.3196 3.14344 11.177 3.12316 11.0068 3.10352C10.6666 3.06423 10.2144 3.02539 9.77148 3.02539C8.83779 3.02544 8.05464 3.30823 7.50488 3.8584C6.95501 4.40879 6.65043 5.21494 6.65039 6.2373V7.90039H4.61914V10.4121H6.65039V15.7822C2.93058 15.1417 0.0996094 11.9027 0.0996094 8C0.0996094 3.63695 3.63695 0.0996094 8 0.0996094C12.3631 0.0996094 15.9004 3.63695 15.9004 8C15.9004 11.9027 13.0695 15.1417 9.34961 15.7822V10.4121H11.2002L11.2129 10.3281L11.5674 8.01562L11.585 7.90039H9.34961V6.49902C9.34966 6.1975 9.42403 5.91203 9.60449 5.70312C9.78289 5.49684 10.0785 5.34961 10.5537 5.34961H11.6621V3.19727Z" fill="#1877F2" stroke="white" stroke-width="0.2"/>
<path d="M9.77148 3.22461C10.2036 3.22461 10.6471 3.26392 10.9834 3.30273C11.1513 3.32213 11.2929 3.34095 11.3916 3.35547C11.4186 3.35945 11.4425 3.36307 11.4629 3.36621V5.15039H10.5537C10.0351 5.15039 9.67814 5.31206 9.45312 5.57227C9.23075 5.82964 9.15044 6.16841 9.15039 6.49902V8.09961H11.3525L11.0283 10.2129H9.15039V15.8145C8.77476 15.8693 8.39091 15.9004 8 15.9004C7.60909 15.9004 7.22521 15.8693 6.84961 15.8145V10.2129H4.81836V8.09961H6.84961V6.2373C6.84965 5.25486 7.14241 4.50454 7.64648 4C8.15064 3.49543 8.87817 3.22466 9.77148 3.22461Z" fill="white" stroke="white" stroke-width="0.2"/>
</g>
<defs>
<clipPath id="clip0_37926_408">
<rect width="16" height="16" fill="white"/>
</clipPath>
</defs>
</svg>
