<svg width="221" height="40" viewBox="0 0 221 40" fill="none" xmlns="http://www.w3.org/2000/svg">
<path d="M77.056 11.248V13.96H72.592V28H69.232V13.96H64.768V11.248H77.056ZM91.8676 21.064C91.8676 21.544 91.8356 21.976 91.7716 22.36H82.0516C82.1316 23.32 82.4676 24.072 83.0596 24.616C83.6516 25.16 84.3796 25.432 85.2436 25.432C86.4916 25.432 87.3796 24.896 87.9076 23.824H91.5316C91.1476 25.104 90.4116 26.16 89.3236 26.992C88.2356 27.808 86.8996 28.216 85.3156 28.216C84.0356 28.216 82.8836 27.936 81.8596 27.376C80.8516 26.8 80.0596 25.992 79.4836 24.952C78.9236 23.912 78.6436 22.712 78.6436 21.352C78.6436 19.976 78.9236 18.768 79.4836 17.728C80.0436 16.688 80.8276 15.888 81.8356 15.328C82.8436 14.768 84.0036 14.488 85.3156 14.488C86.5796 14.488 87.7076 14.76 88.6996 15.304C89.7076 15.848 90.4836 16.624 91.0276 17.632C91.5876 18.624 91.8676 19.768 91.8676 21.064ZM88.3876 20.104C88.3716 19.24 88.0596 18.552 87.4516 18.04C86.8436 17.512 86.0996 17.248 85.2196 17.248C84.3876 17.248 83.6836 17.504 83.1076 18.016C82.5476 18.512 82.2036 19.208 82.0756 20.104H88.3876ZM99.4081 28.216C98.3201 28.216 97.3441 28.024 96.4801 27.64C95.6161 27.24 94.9281 26.704 94.4161 26.032C93.9201 25.36 93.6481 24.616 93.6001 23.8H96.9841C97.0481 24.312 97.2961 24.736 97.7281 25.072C98.1761 25.408 98.7281 25.576 99.3841 25.576C100.024 25.576 100.52 25.448 100.872 25.192C101.24 24.936 101.424 24.608 101.424 24.208C101.424 23.776 101.2 23.456 100.752 23.248C100.32 23.024 99.6241 22.784 98.6641 22.528C97.6721 22.288 96.8561 22.04 96.2161 21.784C95.5921 21.528 95.0481 21.136 94.5841 20.608C94.1361 20.08 93.9121 19.368 93.9121 18.472C93.9121 17.736 94.1201 17.064 94.5361 16.456C94.9681 15.848 95.5761 15.368 96.3601 15.016C97.1601 14.664 98.0961 14.488 99.1681 14.488C100.752 14.488 102.016 14.888 102.96 15.688C103.904 16.472 104.424 17.536 104.52 18.88H101.304C101.256 18.352 101.032 17.936 100.632 17.632C100.248 17.312 99.7281 17.152 99.0721 17.152C98.4641 17.152 97.9921 17.264 97.6561 17.488C97.3361 17.712 97.1761 18.024 97.1761 18.424C97.1761 18.872 97.4001 19.216 97.8481 19.456C98.2961 19.68 98.9921 19.912 99.9361 20.152C100.896 20.392 101.688 20.64 102.312 20.896C102.936 21.152 103.472 21.552 103.92 22.096C104.384 22.624 104.624 23.328 104.64 24.208C104.64 24.976 104.424 25.664 103.992 26.272C103.576 26.88 102.968 27.36 102.168 27.712C101.384 28.048 100.464 28.216 99.4081 28.216ZM111.31 17.464V23.896C111.31 24.344 111.414 24.672 111.622 24.88C111.846 25.072 112.214 25.168 112.726 25.168H114.286V28H112.174C109.342 28 107.926 26.624 107.926 23.872V17.464H106.342V14.704H107.926V11.416H111.31V14.704H114.286V17.464H111.31ZM118.407 13.12C117.815 13.12 117.319 12.936 116.919 12.568C116.535 12.184 116.343 11.712 116.343 11.152C116.343 10.592 116.535 10.128 116.919 9.76C117.319 9.376 117.815 9.184 118.407 9.184C118.999 9.184 119.487 9.376 119.871 9.76C120.271 10.128 120.471 10.592 120.471 11.152C120.471 11.712 120.271 12.184 119.871 12.568C119.487 12.936 118.999 13.12 118.407 13.12ZM120.063 14.704V28H116.703V14.704H120.063ZM139.895 14.512C141.527 14.512 142.839 15.016 143.831 16.024C144.839 17.016 145.343 18.408 145.343 20.2V28H141.983V20.656C141.983 19.616 141.719 18.824 141.191 18.28C140.663 17.72 139.943 17.44 139.031 17.44C138.119 17.44 137.391 17.72 136.847 18.28C136.319 18.824 136.055 19.616 136.055 20.656V28H132.695V20.656C132.695 19.616 132.431 18.824 131.903 18.28C131.375 17.72 130.655 17.44 129.743 17.44C128.815 17.44 128.079 17.72 127.535 18.28C127.007 18.824 126.743 19.616 126.743 20.656V28H123.383V14.704H126.743V16.312C127.175 15.752 127.727 15.312 128.399 14.992C129.087 14.672 129.839 14.512 130.655 14.512C131.695 14.512 132.623 14.736 133.439 15.184C134.255 15.616 134.887 16.24 135.335 17.056C135.767 16.288 136.391 15.672 137.207 15.208C138.039 14.744 138.935 14.512 139.895 14.512ZM154.435 28.216C153.155 28.216 152.003 27.936 150.979 27.376C149.955 26.8 149.147 25.992 148.555 24.952C147.979 23.912 147.691 22.712 147.691 21.352C147.691 19.992 147.987 18.792 148.579 17.752C149.187 16.712 150.011 15.912 151.051 15.352C152.091 14.776 153.251 14.488 154.531 14.488C155.811 14.488 156.971 14.776 158.011 15.352C159.051 15.912 159.867 16.712 160.459 17.752C161.067 18.792 161.371 19.992 161.371 21.352C161.371 22.712 161.059 23.912 160.435 24.952C159.827 25.992 158.995 26.8 157.939 27.376C156.899 27.936 155.731 28.216 154.435 28.216ZM154.435 25.288C155.043 25.288 155.611 25.144 156.139 24.856C156.683 24.552 157.115 24.104 157.435 23.512C157.755 22.92 157.915 22.2 157.915 21.352C157.915 20.088 157.579 19.12 156.907 18.448C156.251 17.76 155.443 17.416 154.483 17.416C153.523 17.416 152.715 17.76 152.059 18.448C151.419 19.12 151.099 20.088 151.099 21.352C151.099 22.616 151.411 23.592 152.035 24.28C152.675 24.952 153.475 25.288 154.435 25.288ZM171.204 14.512C172.788 14.512 174.068 15.016 175.044 16.024C176.02 17.016 176.508 18.408 176.508 20.2V28H173.148V20.656C173.148 19.6 172.884 18.792 172.356 18.232C171.828 17.656 171.108 17.368 170.196 17.368C169.268 17.368 168.532 17.656 167.988 18.232C167.46 18.792 167.196 19.6 167.196 20.656V28H163.836V14.704H167.196V16.36C167.644 15.784 168.212 15.336 168.9 15.016C169.604 14.68 170.372 14.512 171.204 14.512ZM181.407 13.12C180.815 13.12 180.319 12.936 179.919 12.568C179.535 12.184 179.343 11.712 179.343 11.152C179.343 10.592 179.535 10.128 179.919 9.76C180.319 9.376 180.815 9.184 181.407 9.184C181.999 9.184 182.487 9.376 182.871 9.76C183.271 10.128 183.471 10.592 183.471 11.152C183.471 11.712 183.271 12.184 182.871 12.568C182.487 12.936 181.999 13.12 181.407 13.12ZM183.063 14.704V28H179.703V14.704H183.063ZM185.519 21.304C185.519 19.96 185.783 18.768 186.311 17.728C186.855 16.688 187.583 15.888 188.495 15.328C189.423 14.768 190.455 14.488 191.591 14.488C192.583 14.488 193.447 14.688 194.183 15.088C194.935 15.488 195.535 15.992 195.983 16.6V14.704H199.367V28H195.983V26.056C195.551 26.68 194.951 27.2 194.183 27.616C193.431 28.016 192.559 28.216 191.567 28.216C190.447 28.216 189.423 27.928 188.495 27.352C187.583 26.776 186.855 25.968 186.311 24.928C185.783 23.872 185.519 22.664 185.519 21.304ZM195.983 21.352C195.983 20.536 195.823 19.84 195.503 19.264C195.183 18.672 194.751 18.224 194.207 17.92C193.663 17.6 193.079 17.44 192.455 17.44C191.831 17.44 191.255 17.592 190.727 17.896C190.199 18.2 189.767 18.648 189.431 19.24C189.111 19.816 188.951 20.504 188.951 21.304C188.951 22.104 189.111 22.808 189.431 23.416C189.767 24.008 190.199 24.464 190.727 24.784C191.271 25.104 191.847 25.264 192.455 25.264C193.079 25.264 193.663 25.112 194.207 24.808C194.751 24.488 195.183 24.04 195.503 23.464C195.823 22.872 195.983 22.168 195.983 21.352ZM206.008 10.24V28H202.648V10.24H206.008ZM214.416 28.216C213.328 28.216 212.352 28.024 211.488 27.64C210.624 27.24 209.936 26.704 209.424 26.032C208.928 25.36 208.656 24.616 208.608 23.8H211.992C212.056 24.312 212.304 24.736 212.736 25.072C213.184 25.408 213.736 25.576 214.392 25.576C215.032 25.576 215.528 25.448 215.88 25.192C216.248 24.936 216.432 24.608 216.432 24.208C216.432 23.776 216.208 23.456 215.76 23.248C215.328 23.024 214.632 22.784 213.672 22.528C212.68 22.288 211.864 22.04 211.224 21.784C210.6 21.528 210.056 21.136 209.592 20.608C209.144 20.08 208.92 19.368 208.92 18.472C208.92 17.736 209.128 17.064 209.544 16.456C209.976 15.848 210.584 15.368 211.368 15.016C212.168 14.664 213.104 14.488 214.176 14.488C215.76 14.488 217.024 14.888 217.968 15.688C218.912 16.472 219.432 17.536 219.528 18.88H216.312C216.264 18.352 216.04 17.936 215.64 17.632C215.256 17.312 214.736 17.152 214.08 17.152C213.472 17.152 213 17.264 212.664 17.488C212.344 17.712 212.184 18.024 212.184 18.424C212.184 18.872 212.408 19.216 212.856 19.456C213.304 19.68 214 19.912 214.944 20.152C215.904 20.392 216.696 20.64 217.32 20.896C217.944 21.152 218.48 21.552 218.928 22.096C219.392 22.624 219.632 23.328 219.648 24.208C219.648 24.976 219.432 25.664 219 26.272C218.584 26.88 217.976 27.36 217.176 27.712C216.392 28.048 215.472 28.216 214.416 28.216Z" fill="#08090A"/>
<g clip-path="url(#clip0_1_4726)">
<circle cx="10" cy="10" r="30" transform="rotate(-180 10 10)" fill="white"/>
<path d="M20 40.0005C31.0277 40.0005 40 31.0282 40 20.0005C40 16.7252 39.1373 13.6637 37.7383 10.9341L36 7.99854L33 4.99854L29.0566 2.2583C26.3293 0.862223 23.2723 0.000490634 20 0.000490347C8.9723 0.000489383 2.71253e-06 8.97278 1.74846e-06 20.0005C7.84383e-07 31.0282 8.97229 40.0005 20 40.0005ZM26 26.9985C23.791 26.9985 22 25.2075 22 22.9985C22 22.9125 22.0204 22.8316 22.0254 22.7466C22.0114 22.6656 22 22.5826 22 22.4966C22 22.2216 22.0526 15.7084 26.5996 12.2974C26.8696 12.0954 27.185 11.9966 27.498 11.9966C27.954 11.9966 28.4042 12.2051 28.6992 12.5981C29.1962 13.2611 29.0624 14.2008 28.4004 14.6978C26.8924 15.8288 26.0568 17.5196 25.5898 19.0396C25.7268 19.0256 25.859 18.9985 26 18.9985C28.209 18.9985 30 20.7895 30 22.9985C30 25.2075 28.209 26.9985 26 26.9985ZM14 26.9985C11.791 26.9985 10 25.2075 10 22.9985C10 22.9125 10.0204 22.8316 10.0254 22.7466C10.0114 22.6656 10 22.5826 10 22.4966C10 22.2216 10.0526 15.7084 14.5996 12.2974C14.8696 12.0954 15.185 11.9966 15.498 11.9966C15.954 11.9966 16.4042 12.2051 16.6992 12.5981C17.1962 13.2611 17.0624 14.2008 16.4004 14.6978C14.8924 15.8288 14.0568 17.5195 13.5898 19.0396C13.7268 19.0256 13.859 18.9985 14 18.9985C16.209 18.9985 18 20.7895 18 22.9985C18 25.2075 16.209 26.9985 14 26.9985Z" fill="#8064A2"/>
</g>
<defs>
<clipPath id="clip0_1_4726">
<rect width="40" height="40" fill="white" transform="translate(40 40) rotate(-180)"/>
</clipPath>
</defs>
</svg>
